<svg id="Calque_1" data-name="Calque 1" xmlns="http://www.w3.org/2000/svg" viewBox="0 0 238.68 167.06"><defs><style>.cls-1{fill:#000;}</style></defs><title>logo__wipo</title><path class="cls-1" d="M553.14,193.22h4.33l3.08,11.6h0l3.26-11.6h4.33l3.26,11.6h0l3.08-11.6h4.33l-5,15.93h-4.46L566,197.81h0l-3.35,11.33h-4.46Z" transform="translate(-553.14 -87.2)"/><path class="cls-1" d="M583.21,193.22h4.33v15.93h-4.33V193.22Z" transform="translate(-553.14 -87.2)"/><path class="cls-1" d="M593.92,193.22h10.71c4.53,0,5.62,2.7,5.62,4.84,0,3.39-1.78,5.4-5.29,5.4h-6.72v5.69h-4.33V193.22Zm4.33,7.34h4.64c1.34,0,2.9,0,2.9-2.19s-1.27-2.25-2.5-2.25h-5v4.44Z" transform="translate(-553.14 -87.2)"/><path class="cls-1" d="M624.7,192.77c8.57,0,9.9,5.09,9.9,8.41s-1.34,8.41-9.9,8.41-9.9-5.09-9.9-8.41S616.14,192.77,624.7,192.77Zm0,13.78c3.93,0,5.31-2.9,5.31-5.38s-1.38-5.38-5.31-5.38-5.31,2.9-5.31,5.38S620.78,206.56,624.7,206.56Z" transform="translate(-553.14 -87.2)"/><path class="cls-1" d="M593.19,218h0.87l-2.62,7.79H590.5l-2.34-6.66h0l-2.32,6.66h-0.94L582.29,218h0.91l2.16,6.72h0l2.3-6.72h1l2.3,6.72h0Z" transform="translate(-553.14 -87.2)"/><path class="cls-1" d="M600.78,217.78a4.1,4.1,0,1,1-4.23,4.09A3.94,3.94,0,0,1,600.78,217.78Zm0,7.44a3.35,3.35,0,1,0-3.36-3.35A3.14,3.14,0,0,0,600.78,225.22Z" transform="translate(-553.14 -87.2)"/><path class="cls-1" d="M608.47,218h4.25c1.32,0,2.53.47,2.53,2.11a1.91,1.91,0,0,1-1.53,1.89v0c1.1,0.18,1.33.89,1.39,2.16a4.1,4.1,0,0,0,.27,1.61h-0.87a3.55,3.55,0,0,1-.21-1.59c0-1.38-.55-1.83-1.89-1.83h-3.13v3.43h-0.81V218Zm0.81,3.62h3.42a1.43,1.43,0,0,0,1.68-1.52,1.34,1.34,0,0,0-1.6-1.37h-3.5v2.88Z" transform="translate(-553.14 -87.2)"/><path class="cls-1" d="M618.61,218h0.81V225h4.95v0.74h-5.75V218Z" transform="translate(-553.14 -87.2)"/><path class="cls-1" d="M627.27,218h3.79c2.27,0,3.45,1.45,3.45,3.9,0,2.19-1.14,3.9-3.33,3.9h-3.91V218Zm0.81,7.05H631c1.4,0,2.61-.76,2.61-3.16,0-2.06-.81-3.15-2.61-3.15h-2.95V225Z" transform="translate(-553.14 -87.2)"/><path class="cls-1" d="M583.21,232.12h1.64v7.79h-1.64v-7.79Z" transform="translate(-553.14 -87.2)"/><path class="cls-1" d="M588.63,232.12h1.88l4.64,5.85h0v-5.85h1.57v7.79h-1.84l-4.67-5.85h0v5.85h-1.57v-7.79Z" transform="translate(-553.14 -87.2)"/><path class="cls-1" d="M602.65,233.34h-2.93v-1.22h7.49v1.22h-2.93v6.57h-1.64v-6.57Z" transform="translate(-553.14 -87.2)"/><path class="cls-1" d="M610.19,232.12H617v1.22h-5.13v2h4.92v1.22h-4.92v2.16H617v1.22h-6.85v-7.79Z" transform="translate(-553.14 -87.2)"/><path class="cls-1" d="M620.47,232.12h1.64v6.51h4.74v1.29h-6.37v-7.79Z" transform="translate(-553.14 -87.2)"/><path class="cls-1" d="M629.94,232.12h1.64v6.51h4.74v1.29h-6.37v-7.79Z" transform="translate(-553.14 -87.2)"/><path class="cls-1" d="M639.4,232.12h6.77v1.22H641v2H646v1.22H641v2.16h5.22v1.22H639.4v-7.79Z" transform="translate(-553.14 -87.2)"/><path class="cls-1" d="M656.09,235a2.27,2.27,0,0,0-2.51-1.88c-1.5,0-2.63,1-2.63,3a2.62,2.62,0,0,0,2.74,2.75,2.24,2.24,0,0,0,2.4-2h1.77c-0.23,1.55-1.25,3.2-4.45,3.2a3.88,3.88,0,0,1-4.16-4.11c0-2.2,1.29-4.12,4.36-4.12,2.68,0,4.08,1.42,4.26,3.1h-1.77Z" transform="translate(-553.14 -87.2)"/><path class="cls-1" d="M663.49,233.34h-2.92v-1.22h7.49v1.22h-2.93v6.57h-1.64v-6.57Z" transform="translate(-553.14 -87.2)"/><path class="cls-1" d="M671,232.12h1.64v4.4c0,1.08,0,2.39,2.17,2.39s2.18-1.31,2.18-2.39v-4.4h1.64v4.44c0,1.29,0,3.57-3.82,3.57s-3.81-2.28-3.81-3.57v-4.44Z" transform="translate(-553.14 -87.2)"/><path class="cls-1" d="M684.9,232.12h1.94l3.47,7.79h-1.82L687.67,238H684l-0.81,1.93h-1.77Zm2.28,4.64-1.33-3.28-1.35,3.28h2.69Z" transform="translate(-553.14 -87.2)"/><path class="cls-1" d="M693.2,232.12h1.64v6.51h4.74v1.29H693.2v-7.79Z" transform="translate(-553.14 -87.2)"/><path class="cls-1" d="M708.69,232.12h4.8a2.24,2.24,0,0,1,2.53,2.42,2.31,2.31,0,0,1-2.51,2.4h-3.19v3h-1.64v-7.79Zm1.64,3.6H713c0.93,0,1.43-.25,1.43-1.18a1.14,1.14,0,0,0-1.31-1.2h-2.75v2.38Z" transform="translate(-553.14 -87.2)"/><path class="cls-1" d="M719.37,232.12h4.93c2,0,2.63.91,2.63,2.12a1.84,1.84,0,0,1-1.29,1.88v0c0.93,0.19,1.14,1,1.14,2.1a3.29,3.29,0,0,0,.33,1.67h-1.77a2.67,2.67,0,0,1-.2-1.18c0-1.11-.15-1.9-1.35-1.9H721v3.08h-1.64v-7.79Zm4.47,3.49c0.9,0,1.4-.27,1.4-1.15a1.13,1.13,0,0,0-1.4-1.12H721v2.27h2.83Z" transform="translate(-553.14 -87.2)"/><path class="cls-1" d="M730,236c0-2.2,1.29-4.12,4.59-4.12s4.59,1.92,4.59,4.12-1.29,4.11-4.59,4.11S730,238.21,730,236Zm7.47,0a2.88,2.88,0,1,0-2.88,2.89A2.69,2.69,0,0,0,737.48,236Z" transform="translate(-553.14 -87.2)"/><path class="cls-1" d="M742.53,232.12h4.8a2.24,2.24,0,0,1,2.53,2.42,2.32,2.32,0,0,1-2.51,2.4h-3.18v3h-1.64v-7.79Zm1.64,3.6h2.63c0.93,0,1.43-.25,1.43-1.18a1.13,1.13,0,0,0-1.31-1.2h-2.75v2.38Z" transform="translate(-553.14 -87.2)"/><path class="cls-1" d="M753.21,232.12H760v1.22h-5.13v2h4.92v1.22h-4.92v2.16h5.21v1.22h-6.85v-7.79Z" transform="translate(-553.14 -87.2)"/><path class="cls-1" d="M763.49,232.12h4.93c2,0,2.63.91,2.63,2.12a1.84,1.84,0,0,1-1.29,1.88v0c0.93,0.19,1.13,1,1.13,2.1a3.29,3.29,0,0,0,.33,1.67h-1.77a2.64,2.64,0,0,1-.2-1.18c0-1.11-.15-1.9-1.35-1.9h-2.78v3.08h-1.64v-7.79Zm4.46,3.49c0.9,0,1.4-.27,1.4-1.15a1.13,1.13,0,0,0-1.4-1.12h-2.83v2.27H768Z" transform="translate(-553.14 -87.2)"/><path class="cls-1" d="M776.7,233.34h-2.92v-1.22h7.49v1.22h-2.93v6.57H776.7v-6.57Z" transform="translate(-553.14 -87.2)"/><path class="cls-1" d="M786.78,236.94l-3.41-4.82h2l2.23,3.47,2.23-3.47h2l-3.4,4.82v3h-1.64v-3Z" transform="translate(-553.14 -87.2)"/><path class="cls-1" d="M586.69,246.07a4.1,4.1,0,1,1-4.24,4.1A3.94,3.94,0,0,1,586.69,246.07Zm0,7.45a3.35,3.35,0,1,0-3.36-3.35A3.14,3.14,0,0,0,586.69,253.52Z" transform="translate(-553.14 -87.2)"/><path class="cls-1" d="M594.38,246.27h4.25c1.32,0,2.53.47,2.53,2.11a1.9,1.9,0,0,1-1.53,1.89v0c1.1,0.18,1.33.89,1.39,2.16a4.17,4.17,0,0,0,.27,1.62h-0.87a3.6,3.6,0,0,1-.21-1.59c0-1.38-.55-1.83-1.89-1.83h-3.13v3.43h-0.81v-7.79Zm0.81,3.62h3.42a1.43,1.43,0,0,0,1.68-1.51,1.34,1.34,0,0,0-1.61-1.36h-3.49v2.88Z" transform="translate(-553.14 -87.2)"/><path class="cls-1" d="M611.65,252.59h0a3.53,3.53,0,0,1-3.24,1.67,3.77,3.77,0,0,1-4.08-4.09,3.91,3.91,0,0,1,4.17-4.1c2.17,0,3.56,1.23,3.77,2.66h-0.87a2.68,2.68,0,0,0-2.89-1.92,3,3,0,0,0-3.3,3.35c0,2.09,1.07,3.35,3.14,3.35a3,3,0,0,0,3.32-2.73h-2.86V250h3.6v4h-0.62Z" transform="translate(-553.14 -87.2)"/><path class="cls-1" d="M621.26,251.69h-4.1l-1.06,2.37h-0.87l3.54-7.79h0.94l3.54,7.79H622.3Zm-2-4.62L617.48,251h3.45Z" transform="translate(-553.14 -87.2)"/><path class="cls-1" d="M626.08,246.27h1l5.45,6.66h0v-6.66h0.81v7.79h-0.94l-5.48-6.66h0v6.66h-0.81v-7.79Z" transform="translate(-553.14 -87.2)"/><path class="cls-1" d="M637,246.27h0.81v7.79H637v-7.79Z" transform="translate(-553.14 -87.2)"/><path class="cls-1" d="M640.9,253.32l5.78-6.31h-5.41v-0.74h6.51V247L642,253.32h5.9v0.74h-7v-0.74Z" transform="translate(-553.14 -87.2)"/><path class="cls-1" d="M656.07,251.69H652l-1.06,2.37H650l3.54-7.79h0.94l3.54,7.79h-0.94Zm-2-4.62L652.3,251h3.45Z" transform="translate(-553.14 -87.2)"/><path class="cls-1" d="M662.6,247h-3.06v-0.74h6.92V247h-3.06v7H662.6v-7Z" transform="translate(-553.14 -87.2)"/><path class="cls-1" d="M669.44,246.27h0.81v7.79h-0.81v-7.79Z" transform="translate(-553.14 -87.2)"/><path class="cls-1" d="M677.89,246.07a4.1,4.1,0,1,1-4.24,4.1A3.94,3.94,0,0,1,677.89,246.07Zm0,7.45a3.35,3.35,0,1,0-3.36-3.35A3.14,3.14,0,0,0,677.89,253.52Z" transform="translate(-553.14 -87.2)"/><path class="cls-1" d="M685.45,246.27h1l5.44,6.66h0v-6.66h0.81v7.79h-0.94l-5.48-6.66h0v6.66h-0.81v-7.79Z" transform="translate(-553.14 -87.2)"/><path class="cls-1" d="M633.29,108.33a11.55,11.55,0,0,0-.79-1,8.23,8.23,0,0,0,2.07-5.17,7.23,7.23,0,0,0-1.21-3.9c-2.69-4.27-9.74-8-19.65-11v1.44c10.31,2.63,17.28,6,19.51,9.7A5.09,5.09,0,0,1,634,101c0,1.74-1,3.42-2.74,5-3.49-3.27-9.56-6.18-17.54-8.62v1.44c8.07,2.05,14.08,4.54,17.38,7.32a30.53,30.53,0,0,1-8.35,4.75,77.73,77.73,0,0,0-9-3.34V109q4.35,1.11,7.86,2.38c-9,3.48-22.34,6.33-38.33,8.19v4.76a175.43,175.43,0,0,0,30.47-6.58v1.43q4.35,1.11,7.86,2.37c-9,3.48-22.33,6.33-38.33,8.19v4.76a175.44,175.44,0,0,0,30.47-6.58v1.43q4.35,1.11,7.86,2.38c-9,3.48-22.34,6.33-38.34,8.19v4.76a175.34,175.34,0,0,0,30.47-6.58v1.42q4.35,1.11,7.86,2.38c-9,3.48-22.33,6.33-38.33,8.19v4.77a175.42,175.42,0,0,0,30.47-6.58v1.42q4.35,1.11,7.86,2.38c-9,3.48-22.34,6.33-38.33,8.19V165c18.27-2.48,33.14-6.53,42.09-11.45a25.08,25.08,0,0,1,5.77,3.44c-6.68,5.85-24.43,10.7-47.86,13.42v4.76c24.63-3.34,43.1-9.53,49.18-16.88a8.06,8.06,0,0,1,.75,1A5.11,5.11,0,0,1,634,162c0,8.12-20.71,15.11-50.75,18.6v4.77c30.34-4.12,51.34-12.55,51.34-22.18a7.29,7.29,0,0,0-1.29-4,11.53,11.53,0,0,0-.78-1,8.23,8.23,0,0,0,2.07-5.17,7.25,7.25,0,0,0-1.28-4,11.37,11.37,0,0,0-.78-1,8.23,8.23,0,0,0,2.07-5.17,7.26,7.26,0,0,0-1.28-4,11.31,11.31,0,0,0-.79-1,8.23,8.23,0,0,0,2.07-5.17,7.27,7.27,0,0,0-1.28-4,11.63,11.63,0,0,0-.79-1,8.23,8.23,0,0,0,2.07-5.17,7.28,7.28,0,0,0-1.28-4,11.43,11.43,0,0,0-.78-1,8.24,8.24,0,0,0,2.07-5.17A7.26,7.26,0,0,0,633.29,108.33Zm-19.56,9.39a69.13,69.13,0,0,0,11.58-4.86,25,25,0,0,1,5.77,3.44,30.5,30.5,0,0,1-8.34,4.75A77.59,77.59,0,0,0,613.73,117.72Zm0,10.17A69.19,69.19,0,0,0,625.31,123a25,25,0,0,1,5.77,3.44,30.49,30.49,0,0,1-8.34,4.75A77.47,77.47,0,0,0,613.73,127.89Zm0,10.17a69.29,69.29,0,0,0,11.58-4.86,25,25,0,0,1,5.77,3.44,30.54,30.54,0,0,1-8.35,4.75A77.47,77.47,0,0,0,613.73,138.07Zm0,10.17a69.09,69.09,0,0,0,11.58-4.86,25,25,0,0,1,5.77,3.44,30.52,30.52,0,0,1-8.35,4.75A77.6,77.6,0,0,0,613.73,148.24Zm19.43,0.88a5.1,5.1,0,0,1,.82,2.7c0,1.74-1,3.42-2.74,5a25.49,25.49,0,0,0-5.24-3.68,23.45,23.45,0,0,0,6.41-5.05A8,8,0,0,1,633.16,149.12Zm0-10.16a5.1,5.1,0,0,1,.81,2.69c0,1.74-1,3.42-2.74,5A25.46,25.46,0,0,0,626,143a23.43,23.43,0,0,0,6.41-5.05A8,8,0,0,1,633.17,139Zm0-10.18a5.12,5.12,0,0,1,.81,2.69c0,1.74-1,3.42-2.74,5a25.52,25.52,0,0,0-5.24-3.68,23.42,23.42,0,0,0,6.41-5.05A8,8,0,0,1,633.17,128.78Zm0-10.17a5.09,5.09,0,0,1,.82,2.69c0,1.74-1,3.42-2.74,5a25.51,25.51,0,0,0-5.24-3.68,23.43,23.43,0,0,0,6.41-5.05A8.08,8.08,0,0,1,633.16,118.61Zm-1.92-2.45a25.52,25.52,0,0,0-5.24-3.68,23.49,23.49,0,0,0,6.41-5.05,8.06,8.06,0,0,1,.76,1,5.12,5.12,0,0,1,.81,2.68C634,112.87,633,114.55,631.24,116.16Z" transform="translate(-553.14 -87.2)"/></svg>